<?xml version="1.0" standalone="no"?>
<!DOCTYPE svg PUBLIC "-//W3C//DTD SVG 20010904//EN"
 "http://www.w3.org/TR/2001/REC-SVG-20010904/DTD/svg10.dtd">
<svg version="1.0" xmlns="http://www.w3.org/2000/svg"
 width="512.000000pt" height="512.000000pt" viewBox="0 0 512.000000 512.000000"
 preserveAspectRatio="xMidYMid meet">
<metadata>
Created by potrace 1.14, written by Peter Selinger 2001-2017
</metadata>
<g transform="translate(0.000000,512.000000) scale(0.100000,-0.100000)"
fill="#000000" stroke="none">
<path d="M2468 4424 c-2 -1 -25 -5 -53 -8 -27 -4 -75 -14 -105 -23 -30 -10
-58 -16 -62 -15 -5 1 -8 -2 -8 -7 0 -6 -9 -8 -20 -6 -11 2 -18 0 -16 -4 3 -5
-12 -16 -33 -25 -21 -10 -50 -29 -64 -42 -14 -13 -43 -26 -64 -30 -70 -10
-103 -25 -151 -70 -26 -24 -54 -44 -62 -45 -8 0 -33 -11 -55 -24 -22 -13 -49
-28 -60 -33 -11 -6 -37 -26 -57 -45 -21 -20 -38 -34 -38 -32 0 2 -11 -7 -25
-21 -14 -14 -25 -29 -25 -34 0 -6 -4 -10 -10 -10 -5 0 -10 -7 -10 -15 0 -8 -4
-15 -10 -15 -5 0 -10 -9 -10 -19 0 -11 -4 -23 -10 -26 -5 -3 -10 -13 -10 -21
0 -9 -12 -28 -27 -44 -16 -16 -44 -51 -63 -77 -19 -26 -39 -51 -45 -55 -5 -4
-6 -8 -1 -8 5 0 2 -8 -7 -18 -9 -10 -23 -43 -31 -75 -8 -31 -18 -61 -21 -66
-3 -5 -1 -12 4 -16 11 -6 10 -45 -1 -45 -4 0 -4 -10 1 -23 5 -14 5 -30 0 -40
-6 -9 -6 -17 -2 -17 4 0 1 -5 -7 -10 -13 -9 -13 -10 0 -10 13 0 13 -1 0 -10
-17 -10 -25 -152 -10 -180 6 -11 5 -21 -2 -28 -8 -8 -8 -15 0 -25 9 -10 8 -17
-1 -27 -10 -10 -9 -11 1 -5 12 6 12 3 2 -16 -10 -18 -10 -24 -1 -27 9 -3 9 -7
1 -18 -7 -7 -8 -19 -4 -26 13 -20 13 -38 2 -38 -7 0 -6 -5 1 -14 6 -7 12 -25
13 -40 1 -14 5 -26 9 -26 3 0 6 -6 6 -12 0 -7 4 -47 8 -88 4 -41 8 -85 8 -97
1 -13 4 -23 9 -23 4 0 5 -7 2 -15 -4 -8 0 -23 7 -32 12 -14 12 -16 -1 -8 -10
6 -9 2 3 -12 10 -12 21 -36 23 -55 3 -18 9 -46 14 -62 6 -15 8 -31 6 -35 -3
-4 -1 -13 4 -21 6 -9 3 -18 -8 -26 -13 -10 -20 -8 -34 8 -19 22 -76 30 -94 13
-31 -30 -46 -77 -47 -140 0 -50 17 -210 23 -210 1 0 3 -9 4 -20 2 -11 6 -31
10 -44 6 -18 5 -22 -5 -15 -11 6 -12 5 -2 -7 7 -9 15 -26 17 -40 3 -13 5 -24
6 -24 1 0 3 -10 6 -22 2 -12 5 -28 6 -35 2 -7 8 -16 13 -20 6 -4 -6 -8 -25 -9
-181 -4 -170 -2 -201 -37 -30 -34 -33 -47 -29 -152 2 -36 3 -102 4 -147 1 -46
3 -83 6 -83 3 0 4 -21 4 -47 -1 -27 2 -53 8 -60 5 -7 5 -14 -1 -17 -6 -4 -8
-13 -5 -20 3 -8 6 -50 8 -95 1 -44 5 -83 9 -87 4 -4 2 -14 -5 -21 -9 -11 -9
-16 1 -23 9 -5 10 -10 2 -14 -7 -5 -8 -13 -1 -25 6 -12 5 -22 -2 -29 -7 -7 -8
-12 -2 -12 6 0 11 -19 11 -42 1 -46 13 -315 15 -334 2 -16 -42 -84 -53 -84 -5
0 -9 -7 -9 -15 0 -9 -6 -18 -13 -21 -8 -3 -20 -20 -27 -39 -8 -19 -20 -35 -27
-35 -8 0 -12 -3 -10 -8 2 -4 -4 -20 -14 -37 -19 -31 -34 -61 -51 -105 -6 -14
-14 -33 -19 -42 -5 -10 -9 -26 -9 -36 0 -10 -5 -23 -12 -30 -9 -9 -9 -12 1
-12 9 0 10 -4 4 -12 -6 -7 -13 -32 -17 -55 l-6 -43 1696 0 1696 0 -6 43 c-10
70 -13 79 -41 155 -15 39 -31 72 -36 72 -5 0 -6 7 -3 15 4 8 1 15 -5 15 -6 0
-11 5 -11 11 0 6 -9 23 -20 39 -11 15 -17 30 -13 34 3 3 1 6 -5 6 -7 0 -18 16
-26 35 -8 19 -19 35 -23 35 -8 0 -36 54 -33 66 1 4 -4 11 -12 15 -7 5 -8 9 -3
9 10 0 17 73 18 188 0 28 3 52 6 52 3 0 6 54 6 119 0 66 2 118 5 116 3 -2 5
40 5 93 0 54 3 105 8 116 7 14 6 17 -5 10 -10 -6 -11 -5 -1 7 10 12 10 18 1
27 -7 7 -8 12 -2 12 5 0 10 35 11 78 1 67 12 268 17 327 5 58 -41 115 -98 120
-19 2 -40 6 -45 9 -5 4 -12 2 -15 -3 -4 -5 -14 -8 -24 -6 -9 2 -30 4 -46 4
-21 1 -26 4 -19 14 6 6 14 30 18 52 5 22 10 47 13 55 2 8 5 26 7 40 2 14 4 25
5 25 3 0 10 41 13 72 1 18 4 33 7 33 3 0 7 21 8 48 2 26 5 65 6 87 2 22 1 45
-3 50 -3 6 -6 19 -6 30 -1 11 -6 29 -10 40 -12 26 -55 69 -55 55 0 -6 -4 -9
-9 -5 -11 6 -61 -15 -61 -27 0 -4 -9 -8 -19 -8 -23 0 -23 16 5 153 3 15 9 27
13 27 4 0 7 8 8 18 1 9 4 33 7 52 4 19 8 79 10 134 3 68 8 101 18 107 7 5 9 9
4 9 -4 0 -1 11 8 25 12 18 13 25 4 25 -10 0 -9 3 1 9 8 5 11 16 8 26 -4 9 -3
14 2 11 4 -3 8 31 7 74 0 44 -4 80 -9 80 -4 0 -5 6 0 13 12 19 15 105 4 111
-6 4 -8 13 -4 21 3 8 0 15 -7 15 -6 0 -9 4 -6 9 4 5 2 11 -4 13 -5 1 -11 45
-13 96 -2 64 -7 96 -16 102 -8 4 -10 13 -7 19 4 6 4 11 -1 11 -4 0 -16 17 -26
38 -10 22 -39 56 -65 78 -43 36 -72 65 -141 140 -16 16 -51 41 -77 55 -27 13
-51 27 -54 30 -3 3 -20 11 -37 18 -18 8 -33 20 -33 27 0 8 -9 14 -19 14 -11 0
-22 4 -26 10 -3 5 -13 6 -22 3 -12 -5 -14 -3 -8 7 6 9 4 11 -5 5 -7 -4 -39
-10 -71 -12 -58 -4 -58 -4 -57 24 0 15 -7 48 -16 72 -9 24 -16 52 -16 62 0 11
-4 19 -9 19 -5 0 -14 14 -21 30 -7 17 -16 30 -21 30 -4 0 -10 8 -13 18 -6 16
-95 79 -107 75 -3 -1 -11 8 -18 20 -13 25 -73 67 -95 67 -8 0 -18 5 -21 10 -3
6 -15 10 -26 10 -13 0 -18 4 -13 12 4 6 3 8 -3 5 -6 -4 -35 -2 -64 4 -47 10
-205 20 -211 13z"/>
</g>
</svg>
